<?xml version="1.0" encoding="UTF-8" standalone="no"?>
<!-- Created with Pixodesk SVG (https://pixodesk.com) -->
<svg xmlns="http://www.w3.org/2000/svg" viewBox="104.37 144.58 74.08 85.86" text-rendering="geometricPrecision" shape-rendering="geometricPrecision">
  <g id="layer1" transform="translate(-2.9446, -11.6329)scale(-1, 1)">
    <path id="filling-4" fill="#ffffff" stroke="#ffcb47" stroke-width="0" transform="scale(-1, 1)" d="M154.48,164.6C157.39,168.32,162.44,174.09,169.62,181.914C173.9,187.484,176.65,191.6,177.85,194.28C178.714,196.2,179.56,199.68,180.38,204.7L179.984,211.814C178.864,214.49,177.75,216.244,176.634,217.074C175.499,217.92,172.854,218.954,168.7,220.174L163.4,220.174L159.9,217.964L158.552,214.644L159.236,220.174L157.9,222.654L155.026,225.084L150.696,226.444L144.266,226.834C143.146,226.9,141.746,226.714,140.066,226.244C139.29,226.024,138.136,225.294,136.59,224.0362L131.6,217.0962L133.58,220.1732C129.55,224.18,125.8872,225.82,122.59,225.0972C118.83,224.2732,115.62,222.1822,112.94,218.8242L110.01,213.0542C108.74,208.68,108.95,204.8442,110.65,201.5542C112.8342,197.3272,116.97,192.4242,123.06,186.85C126.1462,183.42,128.3,180.86,129.5362,179.16C130.7,177.54,133.2362,172.6852,137.1,164.59C146.4,163.16,152.1932,163.16,154.4632,164.59L154.48,164.6z"/>
  </g>
  <g id="layer2" transform="translate(-2.9446, -11.6329)">
    <path id="hair" fill="none" stroke="#555555" stroke-width="2.25" stroke-linecap="round" stroke-linejoin="bevel" d="M143.18,157.38L142.6,159.0626L145.34,166.9953L144.6563,167.9127"/>
    <path id="filling" fill="#ffc848" stroke="#ffcb47" stroke-width="0" d="M154.42,164.3233C157.33,168.04,162.3775,173.8131,169.56,181.6373C173.8473,187.2,176.59,191.33,177.79,194.0C178.6528,195.93,179.4971,199.4,180.32,204.43L179.9259,211.54C178.8,214.2158,177.69,215.97,176.5743,216.8C175.44,217.65,172.7946,218.6838,168.64,219.9L163.3531,219.9L159.85,217.6925L158.4964,214.3744L159.18,219.9L157.85,222.3873L154.97,224.8157L150.64,226.1756L144.2139,226.5642C143.09,226.64,141.69,226.4427,140.0137,225.9766C139.24,225.76,138.08,225.0253,136.54,223.77L131.55,216.83L133.53,219.9C129.4969,223.91,125.8348,225.55,122.5428,224.83C118.786,224.0,115.57,221.9152,112.8967,218.5566L109.9654,212.7844C108.6925,208.4,108.9,204.5763,110.6,201.29C112.786,197.06,116.9232,192.16,123.0149,186.5829C126.0996,183.1551,128.26,180.59,129.49,178.8931C130.6638,177.276,133.1863,172.42,137.0578,164.3233C146.3576,162.8943,152.145,162.8943,154.42,164.3233z"/>
    <path id="eye-left" fill="none" stroke="#555555" stroke-width="2.25" stroke-linecap="round" stroke-linejoin="bevel" transform="translate(150.67, 0)scale(-1, 1)translate(-138.67, 0)" d="M136.1568,188.8678L137.14,185.522L138.843,184.1837L140.2461,185.727L141.0375,188.2957L141.18,189.8"/>
    <path id="eye-right" fill="none" stroke="#555555" stroke-width="2.25" stroke-linecap="round" stroke-linejoin="bevel" transform="translate(138.8121, -1)scale(-1, 1)translate(-149.8121, 0)" d="M152.1746,192.0662L151.66,189.2L150.88,187.76L149.79,186.8857L148.4331,187.33L147.6176,188.6449L147.4737,190.0L147.45,191.2"/>
    <path id="mouth" fill="#ffffff" stroke="#555555" stroke-width="2.25" stroke-linecap="round" stroke-linejoin="bevel" transform="translate(146.2537, 2)scale(-1, 1)translate(-139.2537, 0)" d="M136.3996,202.1951L137.4,204.3969L139.36,204.55L141.6161,203.4L142.1,201.17L141.16,199.5941L139.6854,198.98L138.2224,200.0258C138.1424,200.0258,137.5348,200.75,136.3996,202.1951z"/>
    <path id="leg-right" fill="none" stroke="#555555" stroke-width="2.25" stroke-linecap="round" stroke-linejoin="bevel" transform="translate(136.55, 0)scale(-1, 1)translate(-140.55, 0)" d="M143.344,236.0649C139.625,235.3377,138.674,236.4641,138.49,236.11C137.75,233.4333,137.57,229.9947,137.95,225.7945"/>
    <path id="toes-right" fill="none" stroke="#555555" stroke-width="2.25" stroke-linecap="round" stroke-linejoin="bevel" transform="translate(140.8936, 0)scale(-1, 1)translate(-135.8936, 0)" d="M133.03,241.07C133.73,239.67,135.64,238.0165,138.7554,236.1"/>
    <path id="leg-left" fill="none" stroke="#555555" stroke-width="2.25" stroke-linecap="round" stroke-linejoin="bevel" transform="translate(150.2224, 0)scale(-1, 1)translate(-157.2224, 0)" d="M159.78,235.11C155.4534,234.8341,153.87,235.053,155.0342,235.7671L155.01,225.1146"/>
    <path id="outline" fill="none" stroke="#555555" stroke-width="2.25" stroke-linecap="round" stroke-linejoin="bevel" d="M150.4,157.2123C153.23,164.1928,159.3356,172.2722,168.72,181.45C173.0,187.0227,175.75,191.1445,176.9478,193.8161C177.8122,195.7429,178.6565,199.2179,179.48,204.24L179.0853,211.3538C177.9676,214.03,176.85,215.7833,175.7337,216.6159C174.5982,217.4627,171.9539,218.497,167.8,219.72L162.5125,219.72L159.01,217.5L157.6557,214.1875L158.34,219.72L157.0,222.2L154.13,224.63L149.8,225.99L143.3732,226.3773C142.25,226.45,140.85,226.2559,139.173,225.79C138.3978,225.5744,137.24,224.84,135.6982,223.582L130.7,216.6422L132.69,219.72C128.6562,223.7234,124.9942,225.3648,121.7,224.6431C117.9454,223.82,114.73,221.73,112.056,218.37L109.1248,212.5976C107.85,208.22,108.0645,204.39,109.7626,201.1C111.9454,196.8745,116.0826,191.9728,122.1743,186.3961C125.26,182.97,127.4175,180.4,128.65,178.7C129.8232,177.09,132.7461,171.5579,137.42,162.1124L136.34,158.47"/>
    <path id="toes-left" fill="none" stroke="#555555" stroke-width="2.25" stroke-linecap="round" stroke-linejoin="bevel" transform="translate(154.54, 0)scale(-1, 1)translate(-152.54, 0)" d="M149.58,239.76C151.6766,237.25,153.65,235.6967,155.4965,235.1"/>
  </g>
</svg>